<?xml version="1.0" encoding="UTF-8"?>
<svg version="1.1" xmlns="http://www.w3.org/2000/svg" width="225" height="225">
<path d="M0 0 C74.25 0 148.5 0 225 0 C225 74.25 225 148.5 225 225 C150.75 225 76.5 225 0 225 C0 150.75 0 76.5 0 0 Z " fill="#FEFEFE" transform="translate(0,0)"/>
<path d="M0 0 C4.62 0 9.24 0 14 0 C14.99 3.96 15.98 7.92 17 12 C17.66 12 18.32 12 19 12 C19.19916016 11.07767578 19.19916016 11.07767578 19.40234375 10.13671875 C19.66724609 8.92435547 19.66724609 8.92435547 19.9375 7.6875 C20.19853516 6.48673828 20.19853516 6.48673828 20.46484375 5.26171875 C21 3 21 3 22 0 C26.62 0 31.24 0 36 0 C36 9.57 36 19.14 36 29 C32.7 29 29.4 29 26 29 C25.67 25.04 25.34 21.08 25 17 C23.68 20.96 22.36 24.92 21 29 C19.02 29 17.04 29 15 29 C13.68 25.04 12.36 21.08 11 17 C10.67 20.96 10.34 24.92 10 29 C6.7 29 3.4 29 0 29 C0 19.43 0 9.86 0 0 Z " fill="#040404" transform="translate(178,93)"/>
<path d="M0 0 C3.3825 -0.04125 6.765 -0.0825 10.25 -0.125 C11.30993164 -0.14320801 12.36986328 -0.16141602 13.46191406 -0.18017578 C14.30463867 -0.1851709 15.14736328 -0.19016602 16.015625 -0.1953125 C16.87446289 -0.20578613 17.73330078 -0.21625977 18.61816406 -0.22705078 C21.21231142 0.02023879 22.79363984 0.63717643 25 2 C28.79976785 6.99599107 29.67931205 11.88619154 29 18 C28.01340714 21.54889517 26.73323705 24.31259026 24 26.875 C20.76724617 28.69342403 18.18831041 29.1220692 14.55078125 29.09765625 C13.78677002 29.09515869 13.02275879 29.09266113 12.2355957 29.09008789 C11.27097412 29.08098389 10.30635254 29.07187988 9.3125 29.0625 C4.7028125 29.0315625 4.7028125 29.0315625 0 29 C0 19.43 0 9.86 0 0 Z " fill="#020202" transform="translate(113,93)"/>
<path d="M0 0 C4.62 0 9.24 0 14 0 C15.65 3.63 17.3 7.26 19 11 C19.33 7.37 19.66 3.74 20 0 C23.3 0 26.6 0 30 0 C30 9.57 30 19.14 30 29 C26.37 29 22.74 29 19 29 C16.69 24.71 14.38 20.42 12 16 C11.67 20.29 11.34 24.58 11 29 C7.37 29 3.74 29 0 29 C0 19.43 0 9.86 0 0 Z " fill="#070707" transform="translate(77,93)"/>
<path d="M0 0 C3.691875 -0.061875 7.38375 -0.12375 11.1875 -0.1875 C12.3427417 -0.21481201 13.4979834 -0.24212402 14.68823242 -0.27026367 C15.60967041 -0.27775635 16.5311084 -0.28524902 17.48046875 -0.29296875 C18.41785889 -0.3086792 19.35524902 -0.32438965 20.32104492 -0.34057617 C23.53256353 0.06770492 25.39378631 1.11169302 28 3 C29.59772112 6.19544224 29.50722235 9.53169582 29 13 C27.1875 15.5 27.1875 15.5 25 17 C24.01 17 23.02 17 22 17 C22.75796875 18.04800781 22.75796875 18.04800781 23.53125 19.1171875 C24.50578125 20.48230469 24.50578125 20.48230469 25.5 21.875 C26.1496875 22.77992187 26.799375 23.68484375 27.46875 24.6171875 C29 27 29 27 29 29 C24.87499283 29.54065628 21.10033465 29.79815674 17 29 C14.19897271 26.36826557 12.57565358 23.4830237 11 20 C10.67 22.97 10.34 25.94 10 29 C6.7 29 3.4 29 0 29 C0 19.43 0 9.86 0 0 Z " fill="#010101" transform="translate(10,93)"/>
<path d="M0 0 C0.74886475 0.00523682 1.49772949 0.01047363 2.26928711 0.01586914 C3.07817383 0.0190918 3.88706055 0.02231445 4.72045898 0.02563477 C5.5705957 0.03401367 6.42073242 0.04239258 7.29663086 0.05102539 C8.15063477 0.05553711 9.00463867 0.06004883 9.88452148 0.06469727 C12.00108749 0.07652166 14.11761771 0.0944577 16.23413086 0.11352539 C17.02783183 3.25884895 17.81870814 6.40487654 18.60913086 9.55102539 C18.83084961 10.42952148 19.05256836 11.30801758 19.28100586 12.21313477 C20.6901308 17.82891209 22.00250731 23.45611442 23.23413086 29.11352539 C19.60413086 29.11352539 15.97413086 29.11352539 12.23413086 29.11352539 C11.73913086 26.63852539 11.73913086 26.63852539 11.23413086 24.11352539 C8.26413086 24.11352539 5.29413086 24.11352539 2.23413086 24.11352539 C1.90413086 25.76352539 1.57413086 27.41352539 1.23413086 29.11352539 C-2.39586914 29.11352539 -6.02586914 29.11352539 -9.76586914 29.11352539 C-3.08796072 0.19852091 -3.08796072 0.19852091 0 0 Z " fill="#040404" transform="translate(50.765869140625,92.886474609375)"/>
<path d="M0 0 C1.125 3.75 1.125 3.75 0 6 C0.66 6.33 1.32 6.66 2 7 C-0.31 7.66 -2.62 8.32 -5 9 C-5 10.65 -5 12.3 -5 14 C-1.03025365 13.43289338 1.76098995 12.38663899 5 10 C6.80796103 7.43389334 6.80796103 7.43389334 8 5 C8.99 6.485 8.99 6.485 10 8 C12.97 7.34 15.94 6.68 19 6 C18.67 4.02 18.34 2.04 18 0 C18.66 0 19.32 0 20 0 C20 1.98 20 3.96 20 6 C20.99 5.67 21.98 5.34 23 5 C23.495 5.99 23.495 5.99 24 7 C22.68 7 21.36 7 20 7 C20 9.31 20 11.62 20 14 C20.99 14.33 21.98 14.66 23 15 C24.1875 17.5625 24.1875 17.5625 25 20 C23.68 19.34 22.36 18.68 21 18 C20.34 18.66 19.68 19.32 19 20 C19.32041397 22.60280568 19.32041397 22.60280568 20 25 C21.98 24.67 23.96 24.34 26 24 C26 24.66 26 25.32 26 26 C24.35 26.33 22.7 26.66 21 27 C20.731875 27.969375 20.46375 28.93875 20.1875 29.9375 C19.795625 30.948125 19.40375 31.95875 19 33 C17.515 33.495 17.515 33.495 16 34 C12.8125 32.0625 12.8125 32.0625 10 30 C8.02 31.32 6.04 32.64 4 34 C2.0625 33.3125 2.0625 33.3125 0 32 C-0.75 29.375 -0.75 29.375 -1 27 C-1.94875 26.690625 -2.8975 26.38125 -3.875 26.0625 C-7 25 -7 25 -9 24 C-9.0809723 21.56183415 -9.14046972 19.12635616 -9.1875 16.6875 C-9.21263672 15.99720703 -9.23777344 15.30691406 -9.26367188 14.59570312 C-9.33760056 9.49462407 -9.33760056 9.49462407 -7.65625 7.03125 C-5.38225373 5.61536553 -3.62238667 5.78737405 -1 6 C-0.67 4.02 -0.34 2.04 0 0 Z " fill="#ECECEC" transform="translate(150,91)"/>
<path d="M0 0 C0.845625 0.45375 1.69125 0.9075 2.5625 1.375 C6.10343382 3.04889599 9.13837647 4.31042437 13 5 C16.3859434 3.76763727 16.3859434 3.76763727 19 2 C17.66828535 7.46003007 15.16220049 11.29700943 11 15 C7.625 16.4375 7.625 16.4375 5 17 C2 12.25 2 12.25 2 10 C0.35 9.67 -1.3 9.34 -3 9 C-3.75 7.3125 -3.75 7.3125 -4 5 C-2.0625 2.25 -2.0625 2.25 0 0 Z " fill="#BABABA" transform="translate(147,108)"/>
<path d="M0 0 C3.71888239 0.50712033 6.73454239 1.11608215 10 3 C10.4125 2.505 10.825 2.01 11.25 1.5 C13 0 13 0 17 0 C17.33 2.31 17.66 4.62 18 7 C13.05 8.485 13.05 8.485 8 10 C7.67 9.01 7.34 8.02 7 7 C6.62875 7.7425 6.2575 8.485 5.875 9.25 C3.62773821 12.54598395 1.51297327 14.13597337 -2 16 C-4.375 15.75 -4.375 15.75 -6 15 C-6.33 13.35 -6.66 11.7 -7 10 C-6.030625 9.649375 -5.06125 9.29875 -4.0625 8.9375 C-0.60565398 7.24996333 -0.60565398 7.24996333 -0.125 3.3125 C-0.08375 2.219375 -0.0425 1.12625 0 0 Z " fill="#D4D4D4" transform="translate(151,90)"/>
<path d="M0 0 C0.33 0 0.66 0 1 0 C1 9.57 1 19.14 1 29 C0.67 29 0.34 29 0 29 C0 26.69 0 24.38 0 22 C-2.31 22.33 -4.62 22.66 -7 23 C-7.66 21.02 -8.32 19.04 -9 17 C-5.125 15 -5.125 15 -4 15 C-4 14.34 -4 13.68 -4 13 C-5.32 12.67 -6.64 12.34 -8 12 C-7.67 9.69 -7.34 7.38 -7 5 C-5.34385343 4.61781233 -3.67542976 4.28604898 -2 4 C-1.67 4.33 -1.34 4.66 -1 5 C-0.67 3.35 -0.34 1.7 0 0 Z " fill="#C7C7C7" transform="translate(177,93)"/>
<path d="M0 0 C0.268125 0.639375 0.53625 1.27875 0.8125 1.9375 C1.88667752 4.33131686 1.88667752 4.33131686 5 5 C6.1875 7.5625 6.1875 7.5625 7 10 C5.68 9.34 4.36 8.68 3 8 C2.34 8.66 1.68 9.32 1 10 C1.32041397 12.60280568 1.32041397 12.60280568 2 15 C3.98 14.67 5.96 14.34 8 14 C8 14.66 8 15.32 8 16 C6.35 16.33 4.7 16.66 3 17 C2.731875 17.969375 2.46375 18.93875 2.1875 19.9375 C1.795625 20.948125 1.40375 21.95875 1 23 C0.01 23.33 -0.98 23.66 -2 24 C-5.1875 22.0625 -5.1875 22.0625 -8 20 C-6.92334707 17.76387469 -5.80426294 15.70247967 -4.4375 13.625 C-2.82889811 10.68755308 -2.48056235 8.2952847 -2 5 C-1.37774395 3.31624835 -0.72455635 1.64232772 0 0 Z " fill="#E4E4E4" transform="translate(168,101)"/>
<path d="M0 0 C1.125 3.75 1.125 3.75 0 6 C0.66 6.33 1.32 6.66 2 7 C-0.31 7.66 -2.62 8.32 -5 9 C-5 10.65 -5 12.3 -5 14 C-1.44219804 13.39009109 1.6828589 12.4216319 5 11 C4.814375 11.9075 4.62875 12.815 4.4375 13.75 C4.04265379 16.68314324 4.05308428 18.2644657 5 21 C1 21 1 21 -0.75 19.5 C-1.1625 19.005 -1.575 18.51 -2 18 C-4.52588702 20.36292656 -5.88820837 21.66462511 -7 25 C-7.66 24.67 -8.32 24.34 -9 24 C-9.0809723 21.56183415 -9.14046972 19.12635616 -9.1875 16.6875 C-9.21263672 15.99720703 -9.23777344 15.30691406 -9.26367188 14.59570312 C-9.33760056 9.49462407 -9.33760056 9.49462407 -7.65625 7.03125 C-5.38225373 5.61536553 -3.62238667 5.78737405 -1 6 C-0.67 4.02 -0.34 2.04 0 0 Z " fill="#E4E4E4" transform="translate(150,91)"/>
<path d="M0 0 C1.98 0 3.96 0 6 0 C8 2 8 2 8.265625 4.09375 C8.26046875 4.8878125 8.2553125 5.681875 8.25 6.5 C8.25515625 7.2940625 8.2603125 8.088125 8.265625 8.90625 C8 11 8 11 6 13 C4.02 13 2.04 13 0 13 C0 8.71 0 4.42 0 0 Z " fill="#F7F7F7" transform="translate(123,102)"/>
<path d="M0 0 C1.9375 1.25 1.9375 1.25 3 3 C2.72963853 5.97397616 2.14553974 6.85446026 0 9 C-6.11111111 9.55555556 -6.11111111 9.55555556 -9 7.75 C-10 6 -10 6 -9.875 3.9375 C-7.86577231 -0.51150417 -4.31294476 -0.44926508 0 0 Z " fill="#D8D8D8" transform="translate(123,126)"/>
<path d="M0 0 C1.9375 1.1875 1.9375 1.1875 3 3 C2.8125 5.625 2.8125 5.625 2 8 C-0.80915474 9.40457737 -2.88810534 9.24895157 -6 9 C-8.375 7.5 -8.375 7.5 -10 6 C-9.6875 4.125 -9.6875 4.125 -9 2 C-5.53076119 -0.31282587 -4.07794425 -0.42478586 0 0 Z " fill="#D9D9D9" transform="translate(69,126)"/>
<path d="M0 0 C7.38461538 -0.36923077 7.38461538 -0.36923077 10.5 1.5 C10.995 1.995 11.49 2.49 12 3 C11.42655063 5.86724686 11.1385485 6.8614515 9 9 C5.98173347 9.27240673 3.03629378 9.08675125 0 9 C0 6.03 0 3.06 0 0 Z " fill="#CCCCCC" transform="translate(203,126)"/>
<path d="M0 0 C7.75 -0.125 7.75 -0.125 10 1 C10 1.99 10 2.98 10 4 C9.34 4 8.68 4 8 4 C9.32 5.65 10.64 7.3 12 9 C7.25 8.25 7.25 8.25 5 6 C5 6.99 5 7.98 5 9 C3.35 9 1.7 9 0 9 C0 6.03 0 3.06 0 0 Z " fill="#666666" transform="translate(79,126)"/>
<path d="M0 0 C7.75 -0.125 7.75 -0.125 10 1 C10 1.99 10 2.98 10 4 C9.34 4 8.68 4 8 4 C9.32 5.65 10.64 7.3 12 9 C7.25 8.25 7.25 8.25 5 6 C5 6.99 5 7.98 5 9 C3.35 9 1.7 9 0 9 C0 6.03 0 3.06 0 0 Z " fill="#656565" transform="translate(133,126)"/>
<path d="M0 0 C1.31823302 0.59155331 2.62947051 1.19871463 3.9375 1.8125 C5.03384766 2.31716797 5.03384766 2.31716797 6.15234375 2.83203125 C8 4 8 4 9 7 C8.67 7.66 8.34 8.32 8 9 C7.29875 8.835 6.5975 8.67 5.875 8.5 C2.86111806 7.97584662 0.05286375 7.92900317 -3 8 C-3.33 7.01 -3.66 6.02 -4 5 C-2.0625 2.3125 -2.0625 2.3125 0 0 Z " fill="#FDFDFD" transform="translate(147,108)"/>
<path d="M0 0 C3.63 0 7.26 0 11 0 C10.67 0.99 10.34 1.98 10 3 C7.525 2.01 7.525 2.01 5 1 C5 1.99 5 2.98 5 4 C5.99 3.67 6.98 3.34 8 3 C7.67 3.99 7.34 4.98 7 6 C6.34 5.67 5.68 5.34 5 5 C5 5.99 5 6.98 5 8 C6.98 7.67 8.96 7.34 11 7 C11 7.66 11 8.32 11 9 C7.37 9 3.74 9 0 9 C0 6.03 0 3.06 0 0 Z " fill="#5E5E5E" transform="translate(185,126)"/>
<path d="M0 0 C3.375 -0.125 3.375 -0.125 7 0 C9 2 9 2 9 6 C6.04335481 7.4783226 3.25770263 7.06032783 0 7 C0 4.69 0 2.38 0 0 Z " fill="#E6E6E6" transform="translate(20,100)"/>
<path d="M0 0 C7.75 -0.125 7.75 -0.125 10 1 C10 1.99 10 2.98 10 4 C8.02 4.33 6.04 4.66 4 5 C4.33 6.32 4.66 7.64 5 9 C3.35 9 1.7 9 0 9 C0 6.03 0 3.06 0 0 Z " fill="#808080" transform="translate(97,126)"/>
<path d="M0 0 C2.125 0.375 2.125 0.375 4 1 C4 2.65 4 4.3 4 6 C-0.95 7.485 -0.95 7.485 -6 9 C-6.33 8.34 -6.66 7.68 -7 7 C-4.66666667 4.66666667 -2.33333333 2.33333333 0 0 Z " fill="#F5F5F5" transform="translate(165,91)"/>
<path d="M0 0 C3.96 0 7.92 0 12 0 C11.67 0.99 11.34 1.98 11 3 C10.01 2.34 9.02 1.68 8 1 C8 3.64 8 6.28 8 9 C6.35 9 4.7 9 3 9 C3.33 6.36 3.66 3.72 4 1 C2.02 1.99 2.02 1.99 0 3 C0 2.01 0 1.02 0 0 Z " fill="#646464" transform="translate(168,126)"/>
<path d="M0 0 C2.10827055 3.16240582 2.33817465 4.50657469 2.625 8.1875 C2.69976562 9.08855469 2.77453125 9.98960938 2.8515625 10.91796875 C2.90054688 11.60503906 2.94953125 12.29210937 3 13 C1.35 13 -0.3 13 -2 13 C-1.85851011 11.3954444 -1.71164314 9.79136233 -1.5625 8.1875 C-1.48128906 7.29417969 -1.40007813 6.40085937 -1.31640625 5.48046875 C-1 3 -1 3 0 0 Z " fill="#D6D6D6" transform="translate(57,98)"/>
<path d="M0 0 C0.66 0 1.32 0 2 0 C2 1.98 2 3.96 2 6 C2.99 5.67 3.98 5.34 5 5 C5.33 5.66 5.66 6.32 6 7 C4.68 7 3.36 7 2 7 C1.67 7.66 1.34 8.32 1 9 C1 8.34 1 7.68 1 7 C0.24074219 7.30035156 -0.51851562 7.60070312 -1.30078125 7.91015625 C-2.29464844 8.29042969 -3.28851563 8.67070313 -4.3125 9.0625 C-5.29863281 9.44535156 -6.28476563 9.82820313 -7.30078125 10.22265625 C-10 11 -10 11 -13 10 C-12.01 8.35 -11.02 6.7 -10 5 C-9.01 6.485 -9.01 6.485 -8 8 C-5.03 7.34 -2.06 6.68 1 6 C0.67 4.02 0.34 2.04 0 0 Z " fill="#767676" transform="translate(168,91)"/>
<path d="M0 0 C1.65 1.65 3.3 3.3 5 5 C4.67 5.99 4.34 6.98 4 8 C2.35 8 0.7 8 -1 8 C-1.66 6.02 -2.32 4.04 -3 2 C-2.01 1.34 -1.02 0.68 0 0 Z " fill="#FDFDFD" transform="translate(171,108)"/>
<path d="M0 0 C0.66 0.33 1.32 0.66 2 1 C2.625 3.5625 2.625 3.5625 3 6 C1.02 6.99 1.02 6.99 -1 8 C-2.5625 6.75 -2.5625 6.75 -4 5 C-3.875 2.875 -3.875 2.875 -3 1 C-2.01 0.67 -1.02 0.34 0 0 Z " fill="#FDFDFD" transform="translate(148,98)"/>
<path d="M0 0 C0.268125 0.639375 0.53625 1.27875 0.8125 1.9375 C1.88667752 4.33131686 1.88667752 4.33131686 5 5 C6.1875 7.5625 6.1875 7.5625 7 10 C6.4225 9.62875 5.845 9.2575 5.25 8.875 C3 7.70833333 3 7.70833333 0.75 8.875 C-0.11625 9.431875 -0.11625 9.431875 -1 10 C-2.15837626 5.94568308 -1.83691257 3.78187881 0 0 Z " fill="#949494" transform="translate(168,101)"/>
<path d="M0 0 C1.98 0 3.96 0 6 0 C5.67 2.97 5.34 5.94 5 9 C3.35 9 1.7 9 0 9 C0.66 8.67 1.32 8.34 2 8 C2 5.69 2 3.38 2 1 C1.34 0.67 0.68 0.34 0 0 Z " fill="#3F3F3F" transform="translate(10,126)"/>
<path d="M0 0 C-0.185625 0.9075 -0.37125 1.815 -0.5625 2.75 C-0.95734621 5.68314324 -0.94691572 7.2644657 0 10 C-1.32 10 -2.64 10 -4 10 C-4.33 9.01 -4.66 8.02 -5 7 C-4.34 7 -3.68 7 -3 7 C-3 6.01 -3 5.02 -3 4 C-3.99 3.67 -4.98 3.34 -6 3 C-2.25 0 -2.25 0 0 0 Z " fill="#818181" transform="translate(155,102)"/>
<path d="M0 0 C1.125 3.75 1.125 3.75 0 6 C0.66 6.33 1.32 6.66 2 7 C-0.31 7.66 -2.62 8.32 -5 9 C-5 10.65 -5 12.3 -5 14 C-6.5625 12.75 -6.5625 12.75 -8 11 C-7.74853421 8.86254078 -7.54074221 7.54074221 -6 6 C-4.33382885 5.95936168 -2.66611905 5.957279 -1 6 C-0.67 4.02 -0.34 2.04 0 0 Z " fill="#949494" transform="translate(150,91)"/>
<path d="M0 0 C2 3 2 3 2 5 C3.98 4.67 5.96 4.34 8 4 C8 4.66 8 5.32 8 6 C6.824375 6.12375 6.824375 6.12375 5.625 6.25 C2.85250896 6.72806339 2.85250896 6.72806339 1.6875 9.0625 C1.460625 9.701875 1.23375 10.34125 1 11 C0.814375 10.071875 0.814375 10.071875 0.625 9.125 C0.12802644 6.80879168 0.12802644 6.80879168 -2 5 C-1.34 4.67 -0.68 4.34 0 4 C0 2.68 0 1.36 0 0 Z " fill="#7E7E7E" transform="translate(168,111)"/>
<path d="M0 0 C0.99 0 1.98 0 3 0 C3.33 2.64 3.66 5.28 4 8 C2.35 8 0.7 8 -1 8 C-0.67 5.36 -0.34 2.72 0 0 Z " fill="#151515" transform="translate(98,127)"/>
<path d="M0 0 C0.99 0 1.98 0 3 0 C3.33 2.64 3.66 5.28 4 8 C2.35 8 0.7 8 -1 8 C-0.67 5.36 -0.34 2.72 0 0 Z " fill="#1E1E1E" transform="translate(80,127)"/>
<path d="M0 0 C1.98 0.495 1.98 0.495 4 1 C3.67 2.65 3.34 4.3 3 6 C1.68 5.67 0.36 5.34 -1 5 C-0.67 3.35 -0.34 1.7 0 0 Z " fill="#1C1C1C" transform="translate(158,104)"/>
<path d="M0 0 C0.99 0 1.98 0 3 0 C3 0.99 3 1.98 3 3 C2.34 3 1.68 3 1 3 C2.32 4.65 3.64 6.3 5 8 C2.625 7.6875 2.625 7.6875 0 7 C-0.66 6.01 -1.32 5.02 -2 4 C-1.34 2.68 -0.68 1.36 0 0 Z " fill="#212121" transform="translate(140,127)"/>
<path d="M0 0 C2.40072955 2.88087546 4.47291037 5.56404834 6 9 C4.68 9 3.36 9 2 9 C0.4375 6.1875 0.4375 6.1875 -1 3 C-0.67 2.01 -0.34 1.02 0 0 Z " fill="#212121" transform="translate(156,126)"/>
<path d="M0 0 C0.66 0.33 1.32 0.66 2 1 C2 2.65 2 4.3 2 6 C4.97 6.495 4.97 6.495 8 7 C8 7.33 8 7.66 8 8 C1.58131488 8.3633218 1.58131488 8.3633218 -1 6.75 C-2 5 -2 5 -1.75 2.875 C-1 1 -1 1 0 0 Z " fill="#222222" transform="translate(43,127)"/>
<path d="M0 0 C4.31392226 0.4793247 6.16569547 1.7457985 9 5 C8.67 5.99 8.34 6.98 8 8 C6.66372225 6.85760183 5.33104612 5.71098945 4 4.5625 C3.2575 3.92441406 2.515 3.28632813 1.75 2.62890625 C1.1725 2.09136719 0.595 1.55382812 0 1 C0 0.67 0 0.34 0 0 Z " fill="#171717" transform="translate(24,127)"/>
<path d="M0 0 C2.31 0.33 4.62 0.66 7 1 C7 1.99 7 2.98 7 4 C6.236875 3.95875 5.47375 3.9175 4.6875 3.875 C1.77281584 3.77919176 1.77281584 3.77919176 -1 6 C-0.67 4.02 -0.34 2.04 0 0 Z " fill="#B5B5B5" transform="translate(145,105)"/>
<path d="M0 0 C0.99 0 1.98 0 3 0 C3 2.31 3 4.62 3 7 C2.01 7 1.02 7 0 7 C0 4.69 0 2.38 0 0 Z " fill="#000000" transform="translate(204,127)"/>
<path d="M0 0 C0.33 0 0.66 0 1 0 C1 2.97 1 5.94 1 9 C-0.37562854 7.71034824 -1.70766393 6.37310707 -3 5 C-3 4.34 -3 3.68 -3 3 C-2.34 3 -1.68 3 -1 3 C-0.67 2.01 -0.34 1.02 0 0 Z " fill="#FBFBFB" transform="translate(176,103)"/>
<path d="M0 0 C0.99 0.33 1.98 0.66 3 1 C3.33 1.99 3.66 2.98 4 4 C2.1875 5.0625 2.1875 5.0625 0 6 C-0.99 5.67 -1.98 5.34 -3 5 C-2.01 3.35 -1.02 1.7 0 0 Z " fill="#A5A5A5" transform="translate(154,129)"/>
<path d="M0 0 C0.99 0.33 1.98 0.66 3 1 C3.33 1.99 3.66 2.98 4 4 C3.67 4.66 3.34 5.32 3 6 C1.68 5.67 0.36 5.34 -1 5 C-1.33 3.68 -1.66 2.36 -2 1 C-1.34 0.67 -0.68 0.34 0 0 Z " fill="#EDEDED" transform="translate(152,111)"/>
<path d="M0 0 C1.98 0.99 1.98 0.99 4 2 C3.67 3.65 3.34 5.3 3 7 C2.01 6.67 1.02 6.34 0 6 C0 4.02 0 2.04 0 0 Z " fill="#090909" transform="translate(68,127)"/>
<path d="M0 0 C2.31 0.33 4.62 0.66 7 1 C6.67 1.66 6.34 2.32 6 3 C5.01 3 4.02 3 3 3 C2.67 3.66 2.34 4.32 2 5 C1.01 4.34 0.02 3.68 -1 3 C-0.67 2.01 -0.34 1.02 0 0 Z " fill="#777777" transform="translate(155,112)"/>
<path d="M0 0 C0.66 0.33 1.32 0.66 2 1 C2 2.98 2 4.96 2 7 C0.68 6.34 -0.64 5.68 -2 5 C-1.125 1.125 -1.125 1.125 0 0 Z " fill="#040404" transform="translate(115,127)"/>
<path d="M0 0 C0.66 0.33 1.32 0.66 2 1 C2 2.98 2 4.96 2 7 C0.68 6.34 -0.64 5.68 -2 5 C-1.125 1.125 -1.125 1.125 0 0 Z " fill="#070707" transform="translate(61,127)"/>
<path d="M0 0 C1.98 0.99 1.98 0.99 4 2 C3.67 3.32 3.34 4.64 3 6 C2.01 6 1.02 6 0 6 C0 4.02 0 2.04 0 0 Z " fill="#010101" transform="translate(211,127)"/>
<path d="M0 0 C1.98 0.99 1.98 0.99 4 2 C3.67 3.32 3.34 4.64 3 6 C2.01 6 1.02 6 0 6 C0 4.02 0 2.04 0 0 Z " fill="#000000" transform="translate(122,127)"/>
</svg>
